<mxfile host="app.diagrams.net" modified="2023-08-31T09:34:44.942Z" agent="Mozilla/5.0 (Windows NT 10.0; Win64; x64) AppleWebKit/537.36 (KHTML, like Gecko) Chrome/116.0.0.0 Safari/537.36 Edg/116.0.1938.62" etag="xf46C-BrNOlIMq-YqvJy" version="21.7.1" type="github">
  <diagram id="C5RBs43oDa-KdzZeNtuy" name="Page-1">
    <mxGraphModel dx="1426" dy="751" grid="1" gridSize="10" guides="1" tooltips="1" connect="1" arrows="1" fold="1" page="1" pageScale="1" pageWidth="827" pageHeight="1169" math="0" shadow="0">
      <root>
        <mxCell id="WIyWlLk6GJQsqaUBKTNV-0" />
        <mxCell id="WIyWlLk6GJQsqaUBKTNV-1" parent="WIyWlLk6GJQsqaUBKTNV-0" />
        <mxCell id="WIyWlLk6GJQsqaUBKTNV-3" value="任务队列" style="rounded=1;whiteSpace=wrap;html=1;fontSize=12;glass=0;strokeWidth=1;shadow=0;" parent="WIyWlLk6GJQsqaUBKTNV-1" vertex="1">
          <mxGeometry x="205" y="180" width="120" height="40" as="geometry" />
        </mxCell>
        <mxCell id="VpArRqA_v5YkFWolQEFv-3" value="&lt;span style=&quot;color: rgb(0, 0, 0); font-family: Helvetica; font-size: 12px; font-style: normal; font-variant-ligatures: normal; font-variant-caps: normal; font-weight: 400; letter-spacing: normal; orphans: 2; text-align: center; text-indent: 0px; text-transform: none; widows: 2; word-spacing: 0px; -webkit-text-stroke-width: 0px; background-color: rgb(251, 251, 251); text-decoration-thickness: initial; text-decoration-style: initial; text-decoration-color: initial; float: none; display: inline !important;&quot;&gt;发送任务消息&lt;/span&gt;" style="edgeStyle=orthogonalEdgeStyle;rounded=0;orthogonalLoop=1;jettySize=auto;html=1;exitX=0.5;exitY=0;exitDx=0;exitDy=0;entryX=0.314;entryY=1.102;entryDx=0;entryDy=0;entryPerimeter=0;" parent="WIyWlLk6GJQsqaUBKTNV-1" source="VpArRqA_v5YkFWolQEFv-0" target="WIyWlLk6GJQsqaUBKTNV-3" edge="1">
          <mxGeometry relative="1" as="geometry">
            <Array as="points">
              <mxPoint x="125" y="270" />
              <mxPoint x="243" y="270" />
            </Array>
          </mxGeometry>
        </mxCell>
        <mxCell id="VpArRqA_v5YkFWolQEFv-27" style="edgeStyle=orthogonalEdgeStyle;rounded=0;orthogonalLoop=1;jettySize=auto;html=1;exitX=1;exitY=0.25;exitDx=0;exitDy=0;entryX=0;entryY=0;entryDx=0;entryDy=30;entryPerimeter=0;" parent="WIyWlLk6GJQsqaUBKTNV-1" source="VpArRqA_v5YkFWolQEFv-0" target="VpArRqA_v5YkFWolQEFv-22" edge="1">
          <mxGeometry relative="1" as="geometry" />
        </mxCell>
        <mxCell id="VpArRqA_v5YkFWolQEFv-28" value="获取节点存活，&lt;br&gt;获取任务状态，&lt;br&gt;获取节点资源。" style="edgeLabel;html=1;align=center;verticalAlign=middle;resizable=0;points=[];" parent="VpArRqA_v5YkFWolQEFv-27" vertex="1" connectable="0">
          <mxGeometry x="-0.2312" y="2" relative="1" as="geometry">
            <mxPoint as="offset" />
          </mxGeometry>
        </mxCell>
        <mxCell id="VpArRqA_v5YkFWolQEFv-0" value="server&lt;br&gt;对外接口&lt;br style=&quot;border-color: var(--border-color);&quot;&gt;&lt;span style=&quot;&quot;&gt;并负责调度任务和资源&lt;/span&gt;" style="rounded=0;whiteSpace=wrap;html=1;" parent="WIyWlLk6GJQsqaUBKTNV-1" vertex="1">
          <mxGeometry x="90" y="330" width="70" height="130" as="geometry" />
        </mxCell>
        <mxCell id="VpArRqA_v5YkFWolQEFv-16" value="控制任务容器执行" style="edgeStyle=orthogonalEdgeStyle;rounded=0;orthogonalLoop=1;jettySize=auto;html=1;entryX=0;entryY=0;entryDx=0;entryDy=25;entryPerimeter=0;" parent="WIyWlLk6GJQsqaUBKTNV-1" target="VpArRqA_v5YkFWolQEFv-15" edge="1">
          <mxGeometry relative="1" as="geometry">
            <mxPoint x="420" y="397.51724137931035" as="sourcePoint" />
          </mxGeometry>
        </mxCell>
        <mxCell id="VpArRqA_v5YkFWolQEFv-13" value="运行任务容器" style="text;html=1;align=center;verticalAlign=middle;resizable=0;points=[];autosize=1;strokeColor=none;fillColor=none;" parent="WIyWlLk6GJQsqaUBKTNV-1" vertex="1">
          <mxGeometry x="572.5" y="290" width="100" height="30" as="geometry" />
        </mxCell>
        <mxCell id="VpArRqA_v5YkFWolQEFv-14" value="收集日志" style="verticalLabelPosition=middle;verticalAlign=middle;html=1;shape=mxgraph.basic.layered_rect;dx=10;outlineConnect=0;whiteSpace=wrap;labelPosition=center;align=center;" parent="WIyWlLk6GJQsqaUBKTNV-1" vertex="1">
          <mxGeometry x="90" y="480" width="610" height="60" as="geometry" />
        </mxCell>
        <mxCell id="VpArRqA_v5YkFWolQEFv-15" value="需求时刻等" style="verticalLabelPosition=middle;verticalAlign=middle;html=1;shape=mxgraph.basic.layered_rect;dx=10;outlineConnect=0;whiteSpace=wrap;labelPosition=center;align=center;" parent="WIyWlLk6GJQsqaUBKTNV-1" vertex="1">
          <mxGeometry x="530" y="330" width="185" height="60" as="geometry" />
        </mxCell>
        <mxCell id="VpArRqA_v5YkFWolQEFv-24" value="监听任务消息" style="edgeStyle=orthogonalEdgeStyle;rounded=0;orthogonalLoop=1;jettySize=auto;html=1;exitX=0;exitY=0;exitDx=30;exitDy=0;exitPerimeter=0;entryX=0.709;entryY=1.102;entryDx=0;entryDy=0;entryPerimeter=0;" parent="WIyWlLk6GJQsqaUBKTNV-1" source="VpArRqA_v5YkFWolQEFv-22" target="WIyWlLk6GJQsqaUBKTNV-3" edge="1">
          <mxGeometry relative="1" as="geometry" />
        </mxCell>
        <mxCell id="VpArRqA_v5YkFWolQEFv-31" style="edgeStyle=orthogonalEdgeStyle;rounded=0;orthogonalLoop=1;jettySize=auto;html=1;exitX=0;exitY=0;exitDx=0;exitDy=90;exitPerimeter=0;entryX=1.026;entryY=0.639;entryDx=0;entryDy=0;entryPerimeter=0;" parent="WIyWlLk6GJQsqaUBKTNV-1" source="VpArRqA_v5YkFWolQEFv-22" target="VpArRqA_v5YkFWolQEFv-0" edge="1">
          <mxGeometry relative="1" as="geometry" />
        </mxCell>
        <mxCell id="VpArRqA_v5YkFWolQEFv-32" value="注册阶段" style="edgeLabel;html=1;align=center;verticalAlign=middle;resizable=0;points=[];" parent="VpArRqA_v5YkFWolQEFv-31" vertex="1" connectable="0">
          <mxGeometry x="0.1145" y="-1" relative="1" as="geometry">
            <mxPoint as="offset" />
          </mxGeometry>
        </mxCell>
        <mxCell id="VpArRqA_v5YkFWolQEFv-22" value="agent&lt;br&gt;获取任务&lt;br&gt;获取宿主机资源" style="verticalLabelPosition=middle;verticalAlign=middle;html=1;shape=mxgraph.basic.layered_rect;dx=10;outlineConnect=0;whiteSpace=wrap;labelPosition=center;align=center;" parent="WIyWlLk6GJQsqaUBKTNV-1" vertex="1">
          <mxGeometry x="355" y="320" width="70" height="130" as="geometry" />
        </mxCell>
      </root>
    </mxGraphModel>
  </diagram>
</mxfile>
